# AST/ASF file generated using VICON BodyLanguage
# -----------------------------------------------
:version 1.10
:name VICON
:units
  mass 1.0
  length 0.45
  angle deg
:documentation
   .ast/.asf automatically generated from VICON data using
   VICON BodyBuilder and BodyLanguage model FoxedUp or BRILLIANT.MOD
:root
   order TX TY TZ RX RY RZ
   axis XYZ
   position 0 0 0  
   orientation 0 0 0 
:bonedata
  begin
     id 1 
     name lhipjoint
     direction 0.535335 -0.74333 0.401095 
     length 2.04549 
     axis 0 0 0  XYZ
  end
  begin
     id 2 
     name lfemur
     direction 0.34202 -0.939693 0  
     length 6.95643  
     axis 0 0 20  XYZ
    dof rx ry rz
    limits (-160.0 20.0)
           (-70.0 70.0)
           (-60.0 70.0)
  end
  begin
     id 3 
     name ltibia
     direction 0.34192 -0.939729 0   
     length 5.55969   
     axis 0 0 20   XYZ
    dof rx
    limits (-10.0 170.0)
  end
  begin
     id 4 
     name lfoot
     direction 0.216943 -0.596046 0.773088   
     length 2.27918   
     axis -90 7.62852e-016 20   XYZ
    dof rx rz
    limits (-45.0 90.0)
           (-70.0 20.0)
  end
  begin
     id 5 
     name ltoes
     direction 1.53519e-011 -4.21748e-011 1   
     length 1.05562   
     axis -90 7.62852e-016 20   XYZ
    dof rx
    limits (-90.0 20.0)
  end
  begin
     id 6 
     name rhipjoint
     direction -0.576368 -0.719173 0.38806   
     length 2.1142  
     axis 0 0 0  XYZ 
  end
  begin
     id 7 
     name rfemur
     direction -0.34202 -0.939693 0   
     length 7.07928   
     axis 0 0 -20   XYZ
    dof rx ry rz
    limits (-160.0 20.0)
           (-70.0 70.0)
           (-70.0 60.0)
  end
  begin
     id 8 
     name rtibia
     direction -0.34202 -0.939693 0   
     length 5.79974   
     axis 0 0 -20   XYZ
    dof rx
    limits (-10.0 170.0)
 end
 begin
     id 9 
     name rfoot
     direction -0.189288 -0.520065 0.832888   
     length 2.42173  
     axis -90 -7.62852e-016 -20   XYZ
    dof rx rz
    limits (-45.0 90.0)
           (-20.0 70.0)
  end
  begin
     id 10 
     name rtoes
     direction -1.53574e-011 -4.21658e-011 1   
     length 1.14469   
     axis -90 -7.62852e-016 -20   XYZ
    dof rx
    limits (-90.0 20.0)
  end
  begin
     id 11 
     name lowerback
     direction -0.00135702 0.993803 0.111144   
     length 1.91308   
     axis 0 0 0   XYZ
    dof rx ry rz
    limits (-20.0 45.0)
           (-30.0 30.0)
           (-30.0 30.0)
  end
  begin
     id 12 
     name upperback
     direction -0.0056745 0.999813 0.0184631   
     length 1.9212   
     axis 0 0 0   XYZ
    dof rx ry rz
    limits (-20.0 45.0)
           (-30.0 30.0)
           (-30.0 30.0)
  end
  begin
     id 13 
     name thorax
     direction -0.00733434 0.999426 -0.0330788   
     length 1.94196   
     axis 0 0 0   XYZ
    dof rx ry rz
    limits (-20.0 45.0)
           (-30.0 30.0)
           (-30.0 30.0)
  end
  begin
     id 14 
     name lowerneck
     direction 0.0563074 0.996944 -0.0541571   
     length 2.34257   
     axis 0 0 0   XYZ
    dof rx ry rz
    limits (-20.0 45.0)
           (-30.0 30.0)
           (-30.0 30.0)
  end
  begin
     id 15 
     name upperneck
     direction -0.0544519 0.976166 -0.210085   
     length 2.32506   
     axis 0 0 0   XYZ
    dof rx ry rz
    limits (-20.0 45.0)
           (-30.0 30.0)
           (-30.0 30.0)
  end
  begin
     id 16
     name head
     direction -0.0226035 0.997615 -0.0652205  
     length 2.3648  
     axis 0 0 0   XYZ
    dof rx ry rz
    limits (-20.0 45.0)
           (-30.0 30.0)
           (-30.0 30.0)
  end
  begin
     id 17 
     name lclavicle
     direction 0.92109 0.381297 -0.0787716  
     length 4.0487  
     axis 0 0 0   XYZ
    dof ry rz
    limits (-20.0 10.0)
           (0.0 20.0)
  end
  begin
     id 18 
     name lhumerus
     direction 1 -4.48986e-011 3.56724e-027   
     length 4.94991   
     axis 180 -30 -90   XYZ
    dof rx ry rz
    limits (-60.0 90.0)
           (-90.0 90.0)
           (-90.0 90.0)
  end
  begin
     id 19
     name lradius
     direction 1 -4.48981e-011 8.62147e-027   
     length 2.7606   
     axis 180 -30 -90   XYZ
    dof rx
    limits (-10.0 170.0)
  end
  begin
     id 20
     name lwrist
     direction 1 -4.48989e-011 1.59799e-026   
     length 1.3803   
     axis -1.17785e-014 90 90   XYZ
    dof ry
    limits (-180.0 0.0)
 end
  begin
     id 21 
     name lhand
     direction 1 -4.48896e-011 3.19599e-026   
     length 0.843936   
     axis -2.03931e-014 90 90   XYZ
    dof rx rz
    limits (-90.0 90.0)
           (-45.0 45.0)
  end
  begin
     id 22 
     name lfingers
     direction 1 -4.48887e-011 6.39197e-026   
     length 0.680403   
     axis -4.07862e-014 90 90   XYZ
    dof rx
    limits (0.0 90.0)
  end
  begin
     id 23
     name lthumb
     direction 0.707107 -6.348e-011 0.707107   
     length 0.976926   
     axis -90 45 2.85299e-015   XYZ
    dof rx rz
    limits (-45.0 45.0)
           (-45.0 45.0)
  end
  begin
     id 24 
     name rclavicle
     direction -0.951104 0.307692 -0.026953   
     length 4.21801  
     axis 0 0 0   XYZ 
    dof ry rz
    limits (-10.0 20.0)
           (-20.0 0.0)
  end
  begin
     id 25 
     name rhumerus
     direction -1 -4.4896e-011 -1.8171e-018  
     length 4.32982   
     axis 180 30 90   XYZ
    dof rx ry rz
    limits (-90.0 60.0)
           (-90.0 90.0)
           (-90.0 90.0)
  end
  begin
     id 26 
     name rradius
     direction -1 -4.48959e-011 8.25165e-027   
     length 3.20057   
     axis 180 30 90   XYZ
    dof rx
    limits (-10.0 170.0)
  end
  begin
     id 27 
     name rwrist
     direction -1 -4.48997e-011 1.59799e-026   
     length 1.60029   
     axis -1.17785e-014 -90 -90   XYZ
    dof ry
    limits (-180.0 0.0)
  end
  begin
     id 28
     name rhand
     direction -1 -4.49023e-011 3.19599e-026   
     length 0.960433   
     axis -2.03931e-014 -90 -90   XYZ
    dof rx rz
    limits (-90.0 90.0)
           (-45.0 45.0)
  end
  begin
     id 29
     name rfingers
     direction -1 -4.48802e-011 6.39197e-026   
     length 0.774326   
     axis -4.07862e-014 -90 -90   XYZ
    dof rx
    limits (0.0 90.0)
  end
  begin
     id 30
     name rthumb
     direction -0.707107 -6.34876e-011 0.707107   
     length 1.11178   
     axis -90 -45 -2.85299e-015   XYZ
    dof rx rz
    limits (-45.0 45.0)
           (-45.0 45.0)
  end
:hierarchy
  begin
    root lhipjoint rhipjoint lowerback
    lhipjoint lfemur
    lfemur ltibia
    ltibia lfoot
    lfoot ltoes
    rhipjoint rfemur
    rfemur rtibia
    rtibia rfoot
    rfoot rtoes
    lowerback upperback
    upperback thorax
    thorax lowerneck lclavicle rclavicle
    lowerneck upperneck
    upperneck head
    lclavicle lhumerus
    lhumerus lradius
    lradius lwrist
    lwrist lhand lthumb
    lhand lfingers
    rclavicle rhumerus
    rhumerus rradius
    rradius rwrist
    rwrist rhand rthumb
    rhand rfingers
end

#!OML:ASF C:\KaitlinTest1\Natural Motions\Nikki\Session 2\Nikki.ASF
:FULLY-SPECIFIED
:DEGREES
414
root -11.597 16.429 4.0322 66.2416 91.9272 59.8834
lowerback -12.3713 -2.42545 1.90922
upperback -5.46305 -3.18713 0.112711
thorax 1.10693 -1.51721 -1.36619
lowerneck -6.88172 -10.6268 -10.2798
upperneck 6.08169 43.2315 5.8371
head 168.463 59.333 -36.9923
rclavicle -2.42269e-014 -6.95746e-015
rhumerus -120.6 -48.1781 31.8737
rradius 8.14762
rwrist 103.863
rhand -33.8176 -1.11569
rfingers 7.12502
rthumb -7.00348 -30.9798
lclavicle -2.42269e-014 -6.95746e-015
lhumerus -69.6612 47.2086 35.0509
lradius 12.4022
lwrist -77.4477
lhand -21.2255 7.61443
lfingers 7.12502
lthumb 5.15666 37.5317
rfemur -3.78471 -19.2488 20.5679
rtibia 16.5553
rfoot -14.8504 7.76488
rtoes 3.18055e-015
lfemur -7.70741 16.9649 -15.7771
ltibia 20.9962
lfoot -11.0451 -19.7976
ltoes 6.36111e-015
415
root -11.605 16.4301 4.02801 65.2999 91.8752 58.8928
lowerback -12.2987 -2.4551 1.79076
upperback -5.42055 -3.21604 0.118177
thorax 1.11855 -1.5309 -1.29586
lowerneck -7.09804 -10.6778 -10.2288
upperneck 6.01086 43.1958 5.76774
head 168.21 59.3288 -37.1735
rclavicle -4.12478e-014 -1.2921e-015
rhumerus -112.141 -50.7547 21.1466
rradius 7.91524
rwrist 95.4374
rhand -33.5909 -0.848778
rfingers 7.12502
rthumb -6.78465 -30.7201
lclavicle -4.12478e-014 -1.2921e-015
lhumerus -68.4015 46.2833 37.1336
lradius 12.4382
lwrist -74.8704
lhand -20.5208 7.26805
lfingers 7.12502
lthumb 5.83705 37.1677
rfemur -3.8696 -19.1068 20.51
rtibia 16.5994
rfoot -14.8524 7.58669
rtoes 4.05521e-014
lfemur -7.80515 17.1067 -15.8998
ltibia 20.9772
lfoot -10.9787 -19.9544
ltoes 5.40694e-014
416
root -11.6118 16.4326 4.02332 64.3704 91.8393 57.8752
lowerback -12.3186 -2.47484 1.69894
upperback -5.37109 -3.23544 0.115013
thorax 1.18555 -1.53927 -1.25261
lowerneck -7.3096 -10.7345 -10.1487
upperneck 5.9651 43.2248 5.73585
head 168.031 59.2405 -37.3208
rclavicle 7.3923e-015 7.95139e-016
rhumerus -102.847 -52.2828 9.50584
rradius 7.87435
rwrist 87.0692
rhand -33.2941 -0.850945
rfingers 7.12502
rthumb -6.49812 -30.7313
lclavicle 7.3923e-015 7.95139e-016
lhumerus -66.7861 45.1758 39.7008
lradius 12.542
lwrist -71.5534
lhand -19.799 6.95375
lfingers 7.12502
lthumb 6.53384 36.833
rfemur -4.03641 -19.2258 20.4575
rtibia 16.6799
rfoot -14.8801 7.67526
rtoes -1.59028e-015
lfemur -7.8997 17.2295 -16.0193
ltibia 20.9288
lfoot -10.9296 -20.0905
ltoes 3.18055e-015
417
root -11.6202 16.4374 4.0201 63.7733 91.7718 57.198
lowerback -12.3469 -2.478 1.59048
upperback -5.2767 -3.23351 0.0903542
thorax 1.30447 -1.53728 -1.22132
lowerneck -7.5304 -10.7282 -10.1329
upperneck 5.85125 43.155 5.70481
head 168.239 59.2224 -37.2042
rclavicle 8.4732e-015 2.98177e-016
rhumerus -93.2408 -52.6791 -2.60321
rradius 8.157
rwrist 78.8054
rhand -33.015 -0.664357
rfingers 7.12502
rthumb -6.22867 -30.5528
lclavicle 8.4732e-015 2.98177e-016
lhumerus -64.8779 43.9732 42.6346
lradius 12.7266
lwrist -67.3046
lhand -19.6849 6.90339
lfingers 7.12502
lthumb 6.64404 36.7792
rfemur -4.16533 -19.1899 20.3949
rtibia 16.6892
rfoot -14.8386 7.65703
rtoes 7.95139e-016
lfemur -8.04696 17.4133 -16.1671
ltibia 20.925
lfoot -10.8583 -20.2688
ltoes -1.11319e-014
418
root -11.6302 16.4392 4.01669 63.4516 91.689 56.8195
lowerback -12.3858 -2.47366 1.48223
upperback -5.15099 -3.22338 0.0621063
thorax 1.46176 -1.53145 -1.1942
lowerneck -7.79573 -10.7974 -10.0434
upperneck 5.69736 42.9173 5.60344
head 168.001 59.4054 -37.3671
rclavicle 3.47873e-014 4.47266e-015
rhumerus -83.7406 -52.0478 -14.6281
rradius 8.57259
rwrist 70.7762
rhand -32.6071 -0.455244
rfingers 7.12502
rthumb -5.83486 -30.3549
lclavicle 3.47873e-014 4.47266e-015
lhumerus -62.2915 42.2422 46.6203
lradius 12.9925
lwrist -61.591
lhand -20.05 7.27164
lfingers 7.12502
lthumb 6.29154 37.1582
rfemur -4.27835 -19.1509 20.3164
rtibia 16.6834
rfoot -14.772 7.64469
rtoes 1.98785e-014
lfemur -8.14006 17.5246 -16.3123
ltibia 20.9037
lfoot -10.8024 -20.3378
ltoes -7.95139e-015
419
root -11.6314 16.4339 4.01951 65.1778 91.9874 58.8448
lowerback -12.1726 -2.50158 1.6271
upperback -4.92112 -3.29262 0.139218
thorax 1.58049 -1.5704 -1.20111
lowerneck -8.03434 -10.7948 -10.0013
upperneck 5.62248 42.9611 5.59903
head 168.17 59.2928 -37.2978
rclavicle 1.41883e-014 6.16232e-015
rhumerus -75.0477 -50.0548 -25.989
rradius 9.1705
rwrist 62.5162
rhand -32.3534 -0.476659
rfingers 7.12502
rthumb -5.58993 -30.3829
lclavicle 1.41883e-014 6.16232e-015
lhumerus -60.2285 40.6169 49.9642
lradius 13.3875
lwrist -56.1907
lhand -20.3981 7.57171
lfingers 7.12502
lthumb 5.95552 37.468
rfemur -3.91266 -18.2672 20.6978
rtibia 16.635
rfoot -14.6846 6.65085
rtoes -1.98785e-014
lfemur -7.86566 17.7013 -15.8017
ltibia 20.9089
lfoot -10.7717 -20.6717
ltoes -4.77083e-014
420
root -11.6426 16.4365 4.02002 64.306 92.0093 57.9115
lowerback -12.1314 -2.53432 1.55638
upperback -4.84014 -3.33272 0.125686
thorax 1.64489 -1.5906 -1.18123
lowerneck -8.30068 -10.8917 -9.81748
upperneck 5.53614 42.8593 5.54733
head 167.78 59.3764 -37.5911
rclavicle -3.0091e-014 -9.54166e-015
rhumerus -66.9929 -47.9977 -36.8624
rradius 9.65945
rwrist 54.8075
rhand -32.2622 -1.26974
rfingers 7.12502
rthumb -5.50185 -31.1783
lclavicle -3.0091e-014 -9.54166e-015
lhumerus -58.2714 38.7769 53.3294
lradius 14.0346
lwrist -50.6203
lhand -20.5769 7.64149
lfingers 7.12502
lthumb 5.78287 37.5426
rfemur -4.006 -18.1589 20.7578
rtibia 16.5849
rfoot -14.589 6.51647
rtoes -1.43125e-014
lfemur -7.99542 17.6535 -15.8265
ltibia 20.9137
lfoot -10.7146 -20.6478
ltoes 9.22361e-014
